#!OML:ASF E:/inclinewalkrobotboard/Project1/Captureday1/Session1/subject1.ASF
:FULLY-SPECIFIED
:DEGREES
51
root 0 0 0 2.10891451424711 -3.785847464463479 2.668363598269094
lowerback 12.258130129961076 0.8412619072361016 -0.6570014533725766
upperback -4.085278690549274 1.0092511327162592 -0.7103671037595999
thorax -11.272188737319578 0.46656367353855094 -0.6275243701700595
lowerneck -7.114431388807588 1.4418418559313737 4.331448377335084
upperneck 19.185224737103685 2.938444587846611 -8.287670706528829
head 7.182840039841597 1.0143545781055945 -3.200329782200747
rclavicle -1.3479881625442417E-15 -1.7644893738022931E-15
rhumerus 17.164487271093073 12.91831271920728 -51.027275381113355
rradius 68.68780791688793
rwrist 24.138551837473024
rhand -32.96740407137696 -49.23172277874573
rfingers 7.125019999999964
rthumb -6.232779397289857 -79.30478244849569
lclavicle 3.82605466613368E-16 1.2493552176254416E-16
lhumerus 18.005964365783193 -13.853204669085574 49.40145326508958
lradius 67.43228483334504
lwrist -18.187173081233233
lhand -44.035426207928865 -60.62456807475917
lfingers 7.1250199999999575
lthumb -16.867203943251415 -31.192630136351813
rfemur -33.82282228703009 -1.1137030852795329 16.205152545926246
rtibia 50.804187524022026
rfoot -21.62988780594798 -16.710838107890584
rtoes -12.748373312268104
lfemur -24.426593391551563 4.209219062158048 -15.551354342066512
ltibia 57.72692569184894
lfoot -20.074927219617667 -0.3497350929970757
ltoes -13.22709779228967
52
root 0 0 0 2.4018648774605675 -3.972489264182963 2.439863327966744
lowerback 12.157541787496015 0.960524345350307 -0.4077376539016514
upperback -4.131454410610395 1.1978693834945684 -0.7272873930354461
thorax -11.243950647905201 0.5508235541991808 -0.8147544692172881
lowerneck -7.056815708737286 1.4106030193658403 4.33092367173792
upperneck 19.050267561568884 2.886303686029758 -8.22655770130402
head 7.1282989440793365 0.998382219142114 -3.1825839529572244
rclavicle -1.48067379076376E-15 -1.4990094310700693E-15
rhumerus 17.60441920976723 13.507626865822088 -51.37643719584769
rradius 69.04235185291087
rwrist 23.746081863128033
rhand -32.98358005086554 -49.204500696431154
rfingers 7.125019999999964
rthumb -6.250351451361938 -79.2631160364817
lclavicle 5.120008030892786E-16 4.07261002055197E-16
lhumerus 18.062128795464275 -14.007264145091856 49.46370289648375
lradius 67.51623059317095
lwrist -18.09011795277873
lhand -44.027052522436584 -60.45344341085965
lfingers 7.1250199999999575
lthumb -16.857442499267123 -31.021148799277764
rfemur -30.424628397944048 -0.25674150405450424 17.727265993677378
rtibia 45.590962993898025
rfoot -26.098725643587308 -17.26344022284343
rtoes -15.486778016085923
lfemur -25.09399258467149 3.1542765523936387 -15.636583061486085
ltibia 48.43946066491371
lfoot -25.497675587391534 3.6704999847009185
ltoes -14.9991800579307
53
root 0 0 0 2.6487298094790455 -4.149970930539514 2.2712150671377924
lowerback 12.03760542691674 1.0759784285294924 -0.22066327450506817
upperback -4.168726450132316 1.371408703399652 -0.7561480643846984
thorax -11.196892671764974 0.6299257650112423 -0.9747028267759614
lowerneck -7.010927094737127 1.3692193677342595 4.309590674102887
upperneck 18.95017711313111 2.819690356586438 -8.135897071558393
head 7.087997725744605 0.9759140276751764 -3.1535609018136865
rclavicle -1.5075270958371968E-15 -1.1939903636529603E-15
rhumerus 17.909816493849853 13.941967480395894 -51.66865617945366
rradius 69.28810286329144
rwrist 23.426118436635385
rhand -32.983674985761716 -49.13043929369714
rfingers 7.125019999999963
rthumb -6.251504857339825 -79.17909630684089
lclavicle 6.872383934281791E-16 6.967087679990192E-16
lhumerus 18.021301396109834 -14.03341493437141 49.509621051491976
lradius 67.49668902247883
lwrist -18.044181155712682
lhand -44.00083257420671 -60.31386214559943
lfingers 7.125019999999957
lthumb -16.831322383098634 -30.877994646535928
rfemur -27.18883118112228 0.7915161911942572 19.195322571694923
rtibia 39.28426273345336
rfoot -29.394968319196536 -17.365261106219283
rtoes -18.073546641774005
lfemur -24.52686639448978 2.062665418664036 -15.732083783663809
ltibia 40.55833875506699
lfoot -29.175162634784243 6.258631417639893
ltoes -17.14714456866897
54
root 0 0 0 2.8495883008574014 -4.280346761946913 2.134136496690168
lowerback 11.880698630389238 1.1737001657747796 -0.07821219039366722
upperback -4.19839079970705 1.5136155211250384 -0.7828538679241045
thorax -11.121121295165967 0.695581613653798 -1.0995769301679394
lowerneck -6.985381156362641 1.3115482865113177 4.272990294077677
upperneck 18.953938874550353 2.7308323507941603 -8.031633203996567
head 7.0864791423773354 0.9416275537927435 -3.1208499617547965
rclavicle -1.4221942047665863E-15 -8.145701868797004E-16
rhumerus 17.890396683403686 13.971318297388263 -51.767612585103464
rradius 69.27076169560013
rwrist 23.335235741136255
rhand -32.95699188385862 -49.0035841518865
rfingers 7.125019999999962
rthumb -6.224322398447754 -79.05094688036257
lclavicle 8.629439621394571E-16 9.478965222766539E-16
lhumerus 17.77597076737223 -13.776671947944807 49.513978016372015
lradius 67.25547968227976
lwrist -18.118253176388123
lhand -43.938233275415364 -60.25850432826274
lfingers 7.125019999999956
lthumb -16.771450160729085 -30.811748373017583
rfemur -24.216072827332397 2.1975311001141384 20.376581864368447
rtibia 31.088897485420873
rfoot -30.36178107293205 -16.76577573944641
rtoes -20.651985103516278
lfemur -22.530806992808046 0.6466862185971504 -15.62622104354542
ltibia 33.33675430913221
lfoot -28.89388087661016 6.684409473644631
ltoes -19.072815626442726
